<svg width="60" height="60" viewBox="0 0 60 60" fill="none" xmlns="http://www.w3.org/2000/svg">
<g id="2">
<path id="Oval" fill-rule="evenodd" clip-rule="evenodd" d="M30 60C46.5685 60 60 46.5685 60 30C60 13.4315 46.5685 0 30 0C13.4315 0 0 13.4315 0 30C0 46.5685 13.4315 60 30 60Z" fill="#FBC52B"/>
<g id="Group 4">
<path id="Path" d="M44.7501 35.3834C41.0668 35.3834 38.0918 32.4084 38.0918 28.7251" stroke="#323232" stroke-width="1.5" stroke-linecap="round" stroke-linejoin="round"/>
<path id="Path_2" d="M38.091 28.5835C38.091 32.2668 35.116 35.3835 31.291 35.3835" stroke="#323232" stroke-width="1.5" stroke-linecap="round" stroke-linejoin="round"/>
<path id="Path_3" d="M31.4336 35.3833C35.1169 35.3833 38.0919 38.3583 38.0919 42.0416" stroke="#323232" stroke-width="1.5" stroke-linecap="round" stroke-linejoin="round"/>
<path id="Path_4" d="M38.0918 42.0416C38.0918 38.3583 41.0668 35.3833 44.7501 35.3833" stroke="#323232" stroke-width="1.5" stroke-linecap="round" stroke-linejoin="round"/>
<path id="Path_5" d="M23.4993 37.0835V42.7502" stroke="#323232" stroke-width="1.5" stroke-linecap="round" stroke-linejoin="round"/>
<path id="Path_6" d="M20.666 39.9168H26.3327" stroke="#323232" stroke-width="1.5" stroke-linecap="round" stroke-linejoin="round"/>
<path id="Path_7" d="M39.0833 17.25V22.9167" stroke="#323232" stroke-width="1.5" stroke-linecap="round" stroke-linejoin="round"/>
<path id="Path_8" d="M36.25 20.0833H41.9167" stroke="#323232" stroke-width="1.5" stroke-linecap="round" stroke-linejoin="round"/>
<path id="Path_9" d="M29.1673 25.0418C26.4757 25.0418 24.209 22.7752 24.209 20.0835" stroke="#323232" stroke-width="1.5" stroke-linecap="round" stroke-linejoin="round"/>
<path id="Path_10" d="M24.2083 20.0835C24.2083 22.7752 21.9417 25.0418 19.25 25.0418" stroke="#323232" stroke-width="1.5" stroke-linecap="round" stroke-linejoin="round"/>
<path id="Path_11" d="M19.25 25.0415C21.9417 25.0415 24.2083 27.3082 24.2083 29.9998" stroke="#323232" stroke-width="1.5" stroke-linecap="round" stroke-linejoin="round"/>
<path id="Path_12" d="M24.209 29.9998C24.209 27.3082 26.4757 25.0415 29.1673 25.0415" stroke="#323232" stroke-width="1.5" stroke-linecap="round" stroke-linejoin="round"/>
</g>
</g>
</svg>
