<svg width="10" height="10" viewBox="0 0 10 10" fill="none" xmlns="http://www.w3.org/2000/svg">
<path fill-rule="evenodd" clip-rule="evenodd" d="M5.33602 9.57683C2.80393 9.57683 0.744141 7.51704 0.744141 4.98495C0.744141 2.45285 2.80393 0.393066 5.33602 0.393066C7.86811 0.393066 9.9279 2.45285 9.9279 4.98495C9.9279 7.51704 7.86811 9.57683 5.33602 9.57683ZM5.33644 1.15869C3.22614 1.15869 1.51009 2.87474 1.51009 4.98504C1.51009 7.09534 3.22614 8.81139 5.33644 8.81139C7.44674 8.81139 9.16279 7.09534 9.16279 4.98504C9.16279 2.87474 7.44674 1.15869 5.33644 1.15869ZM6.86685 6.89855C6.76911 6.89855 6.67137 6.86116 6.59658 6.78638L5.06618 5.25597C5.03075 5.22055 5.00255 5.17791 4.98352 5.13133C4.96384 5.08476 4.954 5.0349 4.954 4.98505V2.30667C4.954 2.09545 5.12522 1.92358 5.33644 1.92358C5.54767 1.92358 5.71888 2.09545 5.71888 2.30667V4.82696L7.13777 6.24519C7.28733 6.39476 7.28733 6.63682 7.13777 6.78638C7.06299 6.86116 6.96525 6.89855 6.86685 6.89855Z" fill="#5F7D8E"/>
</svg>
