<svg width="13" height="10" viewBox="0 0 13 10" fill="none" xmlns="http://www.w3.org/2000/svg">
<path fill-rule="evenodd" clip-rule="evenodd" d="M6.77299 0.705078C4.08936 0.705078 1.78161 2.46705 0.869141 4.96897C1.78161 7.47023 4.08936 9.2322 6.77299 9.2322C9.45661 9.2322 11.7644 7.47023 12.6768 4.96897C11.7644 2.46705 9.45661 0.705078 6.77299 0.705078ZM6.77344 7.8114C5.27058 7.8114 4.08981 6.56044 4.08981 4.96903C4.08981 3.37696 5.27058 2.126 6.77344 2.126C8.2763 2.126 9.45707 3.37696 9.45707 4.96903C9.45707 6.56044 8.2763 7.8114 6.77344 7.8114ZM6.77327 3.2634C5.8608 3.2634 5.16283 4.00204 5.16283 4.96896C5.16283 5.93522 5.8608 6.67451 6.77327 6.67451C7.68574 6.67451 8.38371 5.93522 8.38371 4.96896C8.38371 4.00204 7.68574 3.2634 6.77327 3.2634Z" fill="#5F7D8E"/>
</svg>
