<svg width="60" height="60" viewBox="0 0 60 60" fill="none" xmlns="http://www.w3.org/2000/svg">
<g id="1">
<g id="Icon 1">
<path id="Oval" fill-rule="evenodd" clip-rule="evenodd" d="M30 60C46.5685 60 60 46.5685 60 30C60 13.4315 46.5685 0 30 0C13.4315 0 0 13.4315 0 30C0 46.5685 13.4315 60 30 60Z" fill="#FBC52B"/>
</g>
<g id="Group 4 Copy">
<path id="Path" d="M26.5547 41.3331H34.1102" stroke="#212121" stroke-width="1.19231" stroke-linecap="round" stroke-linejoin="round"/>
<path id="Path_2" fill-rule="evenodd" clip-rule="evenodd" d="M37.8889 13H22.7778C20.7 13 19 14.7 19 16.7778V19.4222C19 20.1778 19.1889 20.9333 19.7556 21.6889L25.8 30L19.7556 38.3111C19.3778 38.8778 19 39.8222 19 40.5778V43.2222C19 45.3 20.7 47 22.7778 47H37.8889C39.9667 47 41.6667 45.3 41.6667 43.2222V40.7667C41.6667 40.0111 41.4778 39.0667 40.9111 38.5L34.4889 30.1889L40.9111 21.8778C41.4778 21.1222 41.6667 20.3667 41.6667 19.6111V17.1556C41.6667 14.7 39.9667 13 37.8889 13Z" stroke="#212121" stroke-width="1.19231" stroke-linecap="round" stroke-linejoin="round"/>
</g>
</g>
</svg>
